<svg viewBox="0 0 400 400" xmlns="http://www.w3.org/2000/svg"><polyline points="200.0,200.0 199.16565678070793,205.26783576456415 198.24061160619382,205.10963491134845 197.34585586622583,204.78820276670209 196.5103135448968,204.3094038806058 195.76176063901897,203.68424526819152 195.1259086261798,202.92864956007048 194.62553308139337,202.0630645575407 194.27967665814577,201.11191821955734 194.10295384106178,200.10293332358896 194.10498213915793,199.0663208954074 194.28996079314598,198.03387582811354 194.6564137192644,197.03800175736941 195.197108433869,196.11069509658017 195.8991572483995,195.28252005557752 196.74430126236163,194.58160739023398 197.70937179449803,194.03270951056763 198.76691806837857,193.65634339665652 199.88598439832336,193.46805055463747 201.03301498989316,193.47780004288 202.17285994996675,193.6895564976404 203.269852351487,194.10103020523087 204.28892335173649,194.70362074834384 205.19672052786396,195.48255976499053 205.96269384571187,196.41725208479374 206.5601140602581,197.48180814653676 206.96698986483275,198.64575435631446 207.16685273178683,199.87490212023567 207.14938205339791,201.1323508751937 206.91084779786516,202.37959572804704 206.45435330880264,203.57770646034342 205.78986693718133,204.68854180005314 204.93403771841844,205.6759611113054 203.90979709277414,206.5069950816577 202.7457555014245,207.1529376310838 201.47540935574963,207.590323126322 200.13618015785198,207.80175601821114 198.76831323950574,207.7765641496758 197.41366849387265,207.51125209337073 196.11443943080016,207.00973682283615 194.91183975163023,206.28335462270653 193.84479830525314,205.3506352018274 192.94870368239646,204.23684627034203 192.25423879809046,202.97331914938576 191.78634361218872,201.59657306781375 191.56334069536456,200.14726243593967 191.59625375404627,198.6689773542052 191.8883436111237,197.20693271579236 192.43487966313035,195.80658532194371 193.2231576917683,194.51222130331357 194.2327673147636,193.36555772181168 195.4361045520901,192.4044024464506 196.79911720265295,191.66141522726474 198.28226322012213,191.16301035069947 199.84165528597268,190.92843740894023 201.43035853109535,190.96907165776835 202.99980306228792,191.28793931561813 204.5012687869127,191.8794961490968 205.88739714500306,192.72967000624314 207.1136828616298,193.81616983135464 208.13989878949522,195.1090553745222 208.93140834356097,196.5715535546917 209.4603229107898,198.16109950805802 209.70646587748408,199.830573007885 209.65811043850957,201.5296944163959 209.31246497988744,203.20653884036824 208.6758873649367,204.80912289576912 207.76381767928206,206.28701559331972 206.60042765205432,207.59292344507125 205.2179938030457,208.68420002544107 203.65601009326957,209.5242319143867 201.96006420400607,210.08365617227906 200.1805092702027,210.34136916390838 198.37096969830355,210.28529253478746 196.58672538155147,209.912869275393 194.88302299537446,209.2312708789702 193.31336595836365,208.25730536480722 191.9278359714873,207.0170251354633 190.77149873861308,205.54504298061357 189.88294451478757,203.88357374123083 189.29301056623166,202.0812279160702 189.0237275496673,200.19159154829035 189.08752536893462,198.271633813003 189.48672642910145,196.3799896034712 190.21334560699626,194.57516888651804 191.2492069496676,192.913747510047 192.56637738112772,191.44859538804585 194.12790784181854,190.22719750266725 195.8888626108079,189.29012094396185 197.7976083718657,188.66967730474238 199.79732617362197,188.388824263243 201.82770207229754,188.4603432726567 203.8267461746091,188.88632213359588 205.7326852223384,189.65796209296275 207.48587093826964,190.7557192641424 209.03064519539564,192.14977989771876 210.3171037332786,193.80085866425065 211.30270262686386,195.66129896284662 211.95365595674687,197.6764446598016 212.2460790231813,199.78624389553426 212.16683882362122,201.92703795759806 211.7140821619097,204.03348195268939 210.89742142107076,206.0405393311948 209.73776842138275,207.88548938658633 208.2668175856902,209.5098857788371 206.5261905133172,210.86140496922445 204.56626468511462,211.8955261976896 202.44471905226249,212.57698921823615 200.22483838255337,212.8809823096056 197.97362615710136,212.7940209198991 195.7597822692303,212.31448645741526 193.65160655994876,211.45280493510427 191.71489216509704,210.23125610690795 190.01087363772146,208.6834150690992 188.59429379482972,206.85323969088512 187.51165023148468,204.7938283330759 186.7996775202746,202.56588276432663 186.48411440397007,200.23592066064109 186.57879698382297,197.87429027180085 187.08510924707917,195.55304649115004 187.9918115508622,193.34375245109237 189.2752562075669,191.31527371678038 190.89998744749184,189.53163305427998 192.81971113154702,188.04999255888387 194.97860801896286,186.91882666065897 197.3129535236093,186.17634425878532 199.75299706127126,185.84921111754576 202.22504561349973,185.95161488754505 204.65368928693027,186.4847049515736 206.96410165776408,187.4364280368287 209.08434473153625,188.78176852204172 210.94760752916147,190.48338996408285 212.49430867706195,192.4926619539791 213.67399691016675,194.75104437100157 214.44698900270393,197.19178981154516 214.78569216887854,199.74191478318357 214.67556720873287,202.32438149880025 214.11569934393196,204.86042506501056 213.11895547720482,207.27195576662052 211.71171916348345,209.4839631798529 209.9332075193261,211.42684811260293 207.83438722358875,213.0386099130078 205.4765192769597,214.2668204809925 202.92937390051893,215.0703222641932 200.26916749490408,215.42059545530284 197.57628261589917,215.30274930501076 194.93283915690913,214.71610363943753 192.42019012452306,213.67433899123836 190.11641837183046,212.20520684900865 188.09391130395562,210.34980500273508 186.41708885104637,208.16143640115666 185.1403559481818,205.70408292492098 184.3063444743175,203.05053761258304 183.94450125827285,200.2802497729918 184.07006859871132,197.47694673059866 184.6834920650569,194.72610337882887 185.77027749472816,192.1123360156666 187.30130546546619,189.7167999235138 189.23359751385595,187.61467072051414 191.51151442127548,185.87278761510052 194.06835342711778,184.54753237735605 196.82829867535287,183.68301121282826 199.70866794892055,183.30959797184852 202.6223891547019,183.4428865024334 205.48063239925145,184.08308776955135 208.19551809318978,185.21489398069463 210.68281852480283,186.807817779941 212.86456986292728,188.81700003044696 214.6715136208453,191.18446524370756 216.04529119346964,193.8407897791565 216.94032204866102,196.70713496328872 217.32530531457576,199.69758567083286 217.18429559384452,202.7217250400024 216.51731652595424,205.68736817733173 215.34048953333888,208.50337220204622 213.68566990558415,211.08243697311948 211.59959745296197,213.34381044636876 209.1425839338603,215.21581485679118 206.38677386880474,216.63811476429538 203.41402874877534,217.56365531015027 200.3134966072548,217.9602086010001 197.178939074697,217.81147769012242 194.10589604458795,217.11772082145978 191.1887736890974,215.89587304737242 188.51794457856383,214.17915759110932 186.17694897018978,212.016194936371 184.23988390726296,209.46963311142815 182.7690616648789,206.61433751676606 181.81301142836045,203.53519246083943 181.4048881125756,200.3245788853425 181.56134021359966,197.07960318939644 182.28187488303462,193.8991602665077 183.54874343859407,190.8809195802409 185.32735472336546,188.11832613024728 187.56720758022007,185.6977083867483 190.20331771100388,183.69558267131717 193.1580988352727,182.17623809405316 196.34364382709637,181.1896781668712 199.66433883656987,180.7699848261513 203.01973269590403,180.93415811732174 206.30757551157262,181.68147058752908 209.42693452861553,182.9933599245606 212.2812923180694,184.8338670378403 214.78153219669318,187.15061009681114 216.84871856462868,189.87626853343602 218.41658547677255,192.93053518731148 219.43365509461808,196.2224801150323 219.864918460273,199.6532565584822 219.69302397895615,203.1190685812046 218.9189337079765,206.51431128965297 217.56202358947297,209.73478863747187 215.65962064768487,212.6809107663861 213.26598738659794,215.26077278013457 210.45078064413184,217.39301980057454 207.29702846064987,219.00940904759824 203.89868359703178,220.05698835610735 200.35782571960556,220.4998217466973 196.78159553349482,220.32020607523407 193.27895293226672,219.51933800348203 189.9573572536717,218.11740710350648 186.91947078529725,216.15310833321 184.25998663642395,213.68258487000688 182.0626789634796,210.77782982169967 180.39776738157602,207.5245921086111 179.31967838240337,204.01984730909584 178.8652749668784,200.3689079976932 179.052611828488,196.68225964819425 179.88025770101237,193.07221715418652 181.32720938246,189.64950314481524 183.35340398126473,186.5198523369807 185.9008176465842,183.78074605298247 188.89512100073233,181.51837772753382 192.24784424342766,179.80494381075027 195.85898897883993,178.69634512091415 199.62000972421916,178.23037168045406 203.41707623710636,178.42542973221012 207.1345186238938,179.2798534055068 210.65835096404123,180.7718258684265 213.87976611133598,182.8599162957396 216.69849453045902,185.48422016317522 219.02592350841203,188.56807182316447 220.78787976007544,192.02028059546643 221.92698814057513,195.73782526677587 222.40453160597025,199.6089274461315 222.20175236406783,203.51641212240676 221.32055088999874,207.34125440197414 219.78355764560706,210.96620507289754 217.63357138978557,214.27938455965267 214.93237732023383,217.1777351139004 211.75897735440338,219.5702247443579 208.20728305249497,221.38070333090113 204.3833384452882,222.5503214020644 200.4021548319563,223.03943489239455 196.38425199229263,222.82893446034572 192.45200981994554,221.92095518550428 188.725940818246,220.33894115964054 185.32099699203067,218.12705907531074 182.3430243026581,215.34897480364276 179.88547401969623,212.0860265319712 178.02647309827313,208.43484670045618 176.8263453364463,204.50450215735228 176.32566182118114,200.41323711004392 176.5438834433764,196.28491610699206 177.4786405189901,192.24527404186537 179.10567532632595,188.41808670938954 181.379453239164,184.92137854371413 184.23442771294827,181.86378371921663 187.5869242904608,179.34117278375047 191.3375896515826,177.4336495274474 195.3743341305835,176.2030120749571 199.57568061186845,175.69075853475684 203.81441977830852,175.91670134709847 207.96146173621497,176.87823622348455 211.88976739946693,178.55029181229244 215.47823990460256,180.88596555363887 218.61545686422485,183.81783022953934 221.2031284521954,187.25987511289293 223.15917404337836,191.11002600362136 224.4203211865322,195.25317041851943 224.94414475166747,199.56459833378082 224.71048074917945,203.91375566360895 223.72216807202102,208.16819751429531 222.00509170174112,212.19762150832324 219.6075221318863,215.87785835291925 216.59876725386974,219.09469744766625 213.0671740646749,221.74742968814127 209.11753764434005,223.75199761420402 204.86799329354463,225.04365444802147 200.44648394430683,225.57904803809177 195.98690845109047,225.33766284545737 191.62506670762434,224.32257236752656 187.49452438282032,222.56047521577463 183.72252319876407,220.10100981741144 180.42606196889227,217.01536473727867 177.70826907591288,213.39422324224276 175.65517881497024,209.34510129230125 174.33301229048925,204.9891570056087 173.78604867548393,200.45756622239463 174.0351550582647,195.88757256578987 175.0770233369678,191.4183309295442 176.8841412701919,187.18667027396384 179.4055024970633,183.32290475044755 182.5680377793124,179.9468213854508 186.27872758018924,177.1639678399671 190.42733505973752,175.0623552441445 194.88967928232705,173.70967902900003 199.53135149951774,173.1511453890596 204.2117633195107,173.40797296198681 208.78840484853615,174.47661904146227 213.1211838348926,176.32875775615838 217.07671369786914,178.91201481153814 220.5324191979907,182.15144029590346 223.38033339597877,185.95167840262138 225.53046832668124,190.19977141177628 226.91365423248925,194.768515570263 227.4837578973647,199.5202692214301 227.2192091342911,204.31109920481111 226.12378525404327,208.9951406266165 224.2266257578752,213.4290379437489 221.581472873987,217.47633214618583 218.26515718750562,221.01165978143206 214.37537077494645,223.92463463192462 210.02779223618512,226.1232918975069 205.35264814180107,227.53698749397853 200.49081305665752,228.11866118378902 195.58956490988828,227.84639123056903 190.79812359530317,226.72418954954884 186.26310794739462,224.7820092719087 182.1240494054975,222.07496055951214 178.50909963512646,218.6817546709146 175.5310641321295,214.7024199525143 173.28388453166735,210.25535588414633 171.8396792445322,205.47381185386513 171.24643552978668,200.50189533474534 171.52642667315308,195.4902290245877 172.67540615494556,190.59138781722302 174.6626072140578,185.95525383853817 177.43155175496258,181.72443095718097 180.9016478456765,178.02985905168495 184.97053086991767,174.98676289618376 189.51708046789244,172.6910609608416 194.4050244340708,171.2163459830429 199.48702238716703,170.61153224336238 204.6091068607129,170.89924457687516 209.61534796085732,172.07500185944002 214.3526002703183,174.10722370002432 218.67518749113572,176.93806406943744 222.44938153175653,180.48505036226757 225.55753833976212,184.64348169234984 227.90176260998413,189.28951681993124 229.40698727844634,194.28386072200655 230.02337104306196,199.4759401090794 229.72793751940276,204.70844274601328 228.52540243606555,209.82208373893766 226.44815981400927,214.66045437917458 223.5554236160877,219.0748059394524 219.93154712114153,222.9286221151979 215.683567485218,226.10183957570797 210.9380468280302,228.4945861808098 205.8373029900575,230.03032053993562 200.53514216900822,230.65827432948626 195.19222136868612,230.35511961568068 189.971180482982,229.1258067315711 185.03169151196894,227.00354332804278 180.5255756122309,224.04891130161286 176.59213730136062,220.34814460455047 173.35385918834615,216.01061666278585 170.91259024836447,211.1656104759914 169.34634619857516,205.95846670212177 168.70682238408943,200.54622444709585 169.01769828804143,195.09288548338552 170.27378897292328,189.76444470490188 172.44107315792363,184.72383740311267 175.457601012862,180.12595716391422 179.2352579120406,176.1128967179191 183.66233415964612,172.80955795240038 188.60682587604717,170.3197666775388 193.9203695858144,168.72301293708583 199.44269327481632,168.07191909766513 205.00645040191486,168.39051619176348 210.4422910731787,169.6733846774178 215.584016705744,171.88568964389026 220.2736612844023,174.96411332733672 224.36634386552223,178.8186604286315 227.73474328354558,183.3352849820785 230.27305689328702,188.37926222808616 231.9003203244034,193.7992058737501 232.56298418875917,199.43161099672847 232.23666590451438,205.1057862872157 230.9270196180878,210.6490268512588 228.66969387014336,215.89187081460028 225.52937435818856,220.6732797327188 221.59793705477728,224.84558444896388 216.99176419548957,228.27904451949135 211.84830141987527,230.86588046411268 206.3219578383137,232.5236535858927 200.57947128135893,233.19788747518348 194.79487782748393,232.86384800079233 189.14423737066105,231.52742391359342 183.80027507654304,229.22507738417673 178.92710181896433,226.02286204371356 174.67517496759478,222.01453453818635 171.1766542445629,217.3188133730576 168.5412959650615,212.07586506783628 166.85301315261805,206.44312155037798 166.16720923839222,200.5905535594468 166.50896990292972,194.69554194218358 167.8721717909011,188.93750159258047 170.21953910178968,183.49242096768677 173.48365027076116,178.52748337064781 177.5688679784045,174.19593438415345 182.35413744937478,170.63235300861692 187.6965712842023,167.94847239423584 193.43571473755773,166.22967989112882 199.39836416246584,165.53230595196788 205.40379394311728,165.88178780665186 211.26923418549964,167.27176749539547 216.81543314116948,169.66415558775606 221.87213507766907,172.99016258523616 226.2833061992882,177.15227049499578 229.91194822732882,182.02708827180675 232.64435117658982,187.46900763624086 234.39365337036048,193.31455102549393 235.10259733445642,199.38728188437798 234.74539428962606,205.50312982841763 233.32863680011016,211.47596996357976 230.8912279262773,217.12328725002618 227.50332510028912,222.27175352598556 223.26432698841333,226.76254678272954 218.2999609057613,230.45624946327456 212.75855601172012,233.23717474741565 206.80661268657036,235.01698663184973 200.62380039370987,235.73750062088072 194.3975342862815,235.37257638590393 188.31729425833964,233.92904109561562 182.56885864111757,231.4466114403109 177.32862802569795,227.99681278581443 172.75821263382878,223.68092447182207 168.99944930077942,218.62701008332894 166.1700016817587,212.98611965968158 164.35968010666102,206.92777639863468 163.62759609269497,200.63488267179724 164.00024151781813,194.29819840098116 165.47055460887873,188.11055848025956 167.99800504565547,182.26100453226132 171.50969952866058,176.92900957738104 175.9024780447688,172.27897205038744 181.04594073910303,168.45514806483368 186.78631669235747,165.57717811093286 192.95105988930155,163.7363468451717 199.35403505011487,162.99269280627067 205.80113748431918,163.37305942154018 212.09617729782104,164.87015031337327 218.04684957659538,167.44262153162214 223.47060887093545,171.0162118431353 228.20026853305387,175.4858805613597 232.08915317111234,180.71889156153543 235.01564545989282,186.558753044396 236.8869864163175,192.82989617723723 237.64221048015364,199.34295277202702 237.2541226747377,205.90047336962007 235.73025398213235,212.30291307590116 233.1127619824115,218.35470368545163 229.47727584239001,223.87022731925194 224.93071692204904,228.67950911649555 219.60815761603266,232.63345440705808 213.66881060356545,235.60846903071845 207.29126753482655,237.51031967780685 200.66812950606032,238.27711376657794 194.0001907450796,237.88130477101564 187.49035114601875,236.33065827763798 181.33744220569164,233.66814549644485 175.73015423243115,229.97076352791498 170.8412503000631,225.34731440545818 166.8222443569962,219.9352067936007 163.7987073984557,213.8963742515264 161.86634706070393,207.41243124689086 161.08798294699773,200.6792117841482 161.49151313270642,193.90085485977926 163.06893742685656,187.28361536793813 165.77647098952153,181.0295880968354 169.5357487865597,175.33053578411466 174.2360881111327,170.3620097166218 179.7377440288317,166.27794312105019 185.87606210051214,163.20588382763006 192.46640504104485,161.24301379921468 199.30970593776445,160.45307966057345 206.19848102552163,160.86433103642855 212.92312041014196,162.46853313135094 219.27826601202082,165.2210874754879 225.06908266420226,169.04226110103477 230.11723086681988,173.81949062772398 234.26635811489555,179.41069485126363 237.3869397431956,185.64849845255068 239.38031946227463,192.34524132898107 240.18182362585088,199.29862365967657 239.76285105984937,206.29781691082195 238.13187116415472,213.12985618822205 235.33429603854543,219.58612012087755 231.45122658449054,225.46870111251872 226.59710685568515,230.5964714502612 220.91635432630395,234.81065935084158 214.57906519541027,237.97976331402143 207.77592238308324,240.00365272376385 200.71245861841132,240.8167269122752 193.60284720387713,240.39003315612723 186.66340803369732,238.73227545966017 180.1060257702662,235.88967955257905 174.1316804391648,231.94471427001588 168.9242879662971,227.01370433909386 164.64503941321271,221.243403503872 161.42741311515292,214.80662884337173 159.3730140147469,207.89708609514756 158.5483698013005,200.72354089649863 158.98278474759482,193.5035113185768 160.6673202448342,186.45667225561724 163.55493693338732,179.79817166140998 167.56179804445918,173.73206199084788 172.569698177497,168.4450473828558 178.4295473185599,164.10073817726698 184.96580750866735,160.83458954432706 191.9817501927887,158.7496807532576 199.26537682541345,157.9134665148762 206.5958245667235,158.35560265131687 213.75006352246342,160.06691594932875 220.50968244744675,162.999553419354 226.6675564574686,167.06831035893387 232.03419320058552,172.15310069408787 236.44356305867905,178.10249814099234 239.75823402649857,184.73824386070586 241.87365250823166,191.86058648072435 242.7214367715481,199.25429454732554 242.271579444961,206.69516045202442 240.53348834617688,213.95679930054348 237.55583009467966,220.81753655630297 233.42517732659147,227.06717490578507 228.2634967893208,232.51343378402723 222.22455103657575,236.98786429462479 215.48931978725562,240.3510575973242 208.26057723133937,242.496985769721 200.75678773076174,243.35634005797243 193.20550366267526,242.89876154123894 185.83646492137643,241.13389264168254 178.87460933484027,238.11121360871297 172.533206645898,233.9186650121164 167.00732563253146,228.68009427272997 162.4678344694295,222.55160021414383 159.05611883184991,215.71688343521652 156.8796809687898,208.3817409434037 156.00875665560326,200.76787000884966 156.4740563624831,193.10616777737494 158.265703062812,185.62972914329578 161.3334028772534,178.56675522598405 165.58784730235828,172.13358819758153 170.90330824386135,166.52808504908975 177.12135060828862,161.92353323348345 184.055552916822,158.46329526102429 191.49709534453194,156.25634770730056 199.22104771306306,155.37385336917896 206.99316810792598,155.84687426620525 214.57700663478428,157.66529876730638 221.74109888287217,160.77801936321976 228.2660302507354,165.09435961683334 233.95115553435156,170.48671076045218 238.62076800246226,176.7943014307205 242.12952830980134,183.8279892688605 244.36698555418877,191.37593163246822 245.26104991724534,199.20996543497515 244.78030783007267,207.0925039932263 242.93510552819927,214.78374241286434 239.77736415081358,222.04895299172892 235.399128068692,228.66564869905187 229.92988672295695,234.43039611779284 223.532747746847,239.1650692384083 216.3995743791004,242.72235188062723 208.74523207959612,244.990318815678 200.8011168431128,245.89595320366965 192.80816012147275,245.40748992635054 185.00952180905497,243.5355098237047 177.64319289941486,240.3327476648472 170.93473285263167,235.89261575421733 165.09036329876542,230.34648420636563 160.29062952564598,223.85979692441512 156.68482454854717,216.6271380270619 154.38634792283278,208.86639579166047 153.46914350990602,200.81219912120005 153.96532797737152,192.70882423617246 155.86408588078964,184.80278603097491 159.11186882111917,177.33533879055864 163.61389656025776,170.53511440431473 169.2369183102252,164.61112271532414 175.81315389801676,159.74632828970027 183.14529832497723,156.09200097772128 191.01244049627581,153.76301466134345 199.176718600712,152.83424022348174 207.39051164912783,153.33814588109357 215.40394974710577,155.26368158528422 222.97251531829812,158.55648530708584 229.86450404400173,163.12040887473242 235.86811786811717,168.82032082681604 240.79797294624578,175.48610472044925 244.50082259310435,182.91773467701572 246.86031860014577,190.89127678421147 247.80066306294256,199.1656363226241 247.2890362151843,207.48984753442878 245.33672271022144,215.61068552518583 241.9988982069478,223.28036942715434 237.3730788107925,230.2641224923187 231.5962766565926,236.3473584515589 224.84094445711884,241.3422741821915 217.30982897094577,245.09364616392998 209.22988692785222,247.4836518616351 200.84544595546316,248.4355663493669 192.41081658027093,247.91621831146225 184.18257869673414,245.93712700572706 176.41177646398887,242.55428172098112 169.33625905936483,237.86656649631783 163.17340096499981,232.0128741400018 158.1134245818628,225.16799363468698 154.31353026524414,217.53739261890667 151.89301487687567,209.3510506399166 150.9295303642088,200.8565282335511 151.4565995922598,192.31148069497064 153.4624686987675,183.97584291865343 156.89033476498525,176.10392235513268 161.63994581815683,168.9366406110484 167.57052837658955,162.69416038155805 174.5049571877455,157.56912334591675 182.23504373313185,153.7207066944185 190.52778564801903,151.26968161538645 199.13238948836164,150.2946270777845 207.78785519033033,150.82941749598194 216.2308928594266,152.86206440326185 224.2039317537235,156.3349512509516 231.46297783726857,161.14645813263195 237.7850802018832,167.1539308931804 242.97517789002896,174.17790801017742 246.87211687640712,182.0074800851703 249.3536516461029,190.40662193595537 250.3402762086398,199.1213072102737 249.797764600296,207.88719107563062 247.73833989224357,216.43762863750732 244.2204322630817,224.51178586258033 239.34702955289342,231.86259628558503 233.26266659022878,238.26432078532451 226.1491411673901,243.51947912597504 218.22008356279053,247.464940447233 209.714541776109,249.9769849075921 200.88977506781424,250.9751794950641 192.0134730390684,250.42494669657384 183.35563558441265,248.33874418774923 175.18036002856348,244.77581577711535 167.73778526609854,239.84051723841878 161.25643863123375,233.6792640736374 155.93621963807928,226.4761903449582 151.9422359819414,218.44764721075205 149.39968183091867,209.8357054881734 148.38991721851158,200.90085734590147 148.9478712071482,191.9141371537681 151.06085151674512,183.14889980633262 154.66880070885134,174.87250591970667 159.66599507605633,167.33816681778154 165.9041384429534,160.77719804779247 173.19676047747367,155.39191840213357 181.32478914128708,151.3494124111155 190.04313079976293,148.77634856942933 199.0880603760106,147.75501393208725 208.18519873153215,148.32068911087026 217.05783597174812,150.4604472212397 225.43534818914952,154.11341719481769 233.06145163053486,159.172507390531 239.70204253564881,165.48754095954422 245.1523828338125,172.86971129990616 249.24341115971012,181.09722549332557 251.8469846920599,189.92196708769856 252.87988935433702,199.07697809792262 252.3064929854076,208.28453461683316 250.13995707426596,217.26457174982815 246.44196631921596,225.74320229800568 241.3209802949939,233.4610700788519 234.9290565238644,240.18128311909055 227.45733787766196,245.6966840697582 219.13033815463598,249.83623473053575 210.19919662436507,252.47031795354926 200.93410418016458,253.51479264076136 191.61612949786658,252.93367508168552 182.52869247209185,250.74036136977162 173.94894359313747,246.99734983324925 166.1393114728317,241.81446798051925 159.33947629746814,235.3456540072736 153.7590146942961,227.7843870552301 149.57094169863836,219.35790180259679 146.90634878496155,210.32036033642947 145.85030407281434,200.94518645825255 146.43914282203662,191.51679361256558 148.65923433472295,182.3219566940111 152.4472666527171,173.6410894842813 157.69204433395538,165.73969302451528 164.23774850931778,158.86023571402637 171.8885637672024,153.21471345835002 180.41453454944167,148.97811812781273 189.55847595150613,146.28301552347233 199.04373126366025,145.21540078639003 208.58254227273468,145.81196072575867 217.88477908406892,148.0588300392173 226.66676462457485,151.89188313868345 234.65992542380175,157.1985566484305 241.61900486941488,163.8211510259086 247.32958777759566,171.5615145896343 251.61470544301287,180.18697090148012 254.34031773801703,189.4373122394425 255.41950250003427,199.03264898557228 254.8152213705193,208.68187815803495 252.5415742562881,218.09151486214967 248.66350037534983,226.9746187334317 243.29493103709484,235.05954387211816 236.5954464575006,242.09824545285613 228.76553458793316,247.87388901354177 220.04059274648068,252.20752901383878 210.6838514726219,254.96365099950623 200.97843329251572,256.0544057864586 191.21878595666402,255.44240346679715 181.7017493597703,253.14197855179378 172.71752715771214,249.2188838893835 164.5408376795654,243.78841872262024 157.42251396370207,237.01204394090922 151.58180975051255,229.09258376550133 147.19964741533562,220.26815639444223 144.41301573900455,210.8050151846863 143.3106909271171,200.9895155706029 143.9304144369249,191.1194500713638 146.25761715270056,181.4950135816903 150.2257325965832,172.40967304885527 155.7180935918549,164.14121923124839 162.5713585756816,156.94327338026082 170.58036705693053,151.03750851456687 179.5042799575962,146.60682384451002 189.0738211032493,143.78968247751536 198.99940215130994,142.6757876406928 208.97988581393724,143.30323234064707 218.71172219639047,145.65721285719513 227.89818106000087,149.67034908254954 236.25839921706802,155.22460590632954 243.53596720318043,162.1547610922724 249.50679272137882,170.25331787936238 253.9859997263156,179.27671630963465 256.8336507839742,188.95265739118648 257.9591156457315,198.98831987322197 257.3239497556309,209.0792216992375 254.94319143831052,218.91845797447047 250.88503443148412,228.20603516885703 245.26888177919585,236.65801766538442 238.26183639113682,244.0152077866217 230.07373129820436,250.05109395732535 220.9508473383254,254.5788232971418 211.16850632087795,257.4569840454634 201.02276240486603,258.5940189321558 190.82144241546226,257.9511318519088 180.87480624744956,255.54359573381618 171.48611072228684,251.4404179455178 162.94236388629918,245.76236946472122 155.50555162993595,238.6784338745448 149.40460480672897,230.4007804757725 144.8283531320326,221.17841098628693 141.9196826930474,211.28967003294235 140.77107778141988,201.03384468295403 141.42168605181317,190.72210653016202 143.85599997067817,180.66807046936955 148.00419854044935,171.17825661342923 153.74414284975447,162.5427454379815 160.90496864204601,155.0263110464947 169.27217034665932,148.8603035707833 178.5940253657515,144.235529561207 188.58916625499322,141.2963494315582 198.95507303895798,140.13617449499557 209.37722935513818,140.79450395553522 219.53866530871204,143.25559567517303 229.12959749542694,147.4488150264157 237.8568730103349,153.25065516422907 245.45292953694656,160.4883711586368 251.6839976651624,168.94512116909115 256.3572940096186,178.36646171778992 259.326983829931,188.4680025429288 260.4987287914288,198.94399076087169 259.8326781407425,209.4765652404401 257.3448086203326,219.74540108679201 253.106568487618,229.43745160428307 247.2428325212963,238.2564914586513 239.92822632477242,245.93217012038778 231.381928008477,252.22829890110805 221.86110193017166,256.9501175804442 211.65316116913394,259.9503170914205 201.0670915172163,261.13363207785306 190.42409887425967,260.45986023702045 180.04786313512798,257.94521291583834 170.2546942868608,253.66195200165168 161.34389009303231,247.7363202068217 153.58858929617097,240.34482380818164 147.2273998629463,231.70897718604516 142.45705884872953,222.0886655781316 139.42634964709026,211.77432488119837 138.23146463572263,201.0781737953043 138.9129576667016,190.32476298895946 141.454382788656,179.841127357048 145.78266448431464,169.94684017800466 151.77019210765292,160.9442716447159 159.23857870841044,153.1093487127286 167.96397363638818,146.68309862699974 177.68377077390682,141.86423527790393 188.1045114067372,138.80301638560104 198.91074392660767,137.59656134929833 209.77457289634077,138.28577557042362 220.36560842103196,140.85397849315035 230.36101393085147,145.22728097028096 239.45534680360183,151.27670442212866 247.36989187071265,158.82198122500122 253.86120260894594,167.63692445881998 258.7285882929217,177.45620712594524 261.8203168758881,187.98334769467274 263.03834193712595,198.89966164851967 262.3414065258543,209.87390878164095 259.7464258023548,220.57234419911362 255.32810254375187,230.66886803970914 249.21678326339674,239.85496525191823 241.594616258408,247.8491324541539 232.6901247187482,254.4055038448916 222.77135652201633,259.32141186374724 212.13781601739169,262.44365013737735 201.11142062956836,263.6732452235503 190.02675533305705,262.968588622132 179.2209200228064,260.34683009786045 169.02327785143473,255.88348605778552 159.7454162997654,249.71027094892213 151.67162696240487,242.01121374181724 145.05019491916272,233.01717389631636 140.08576456542713,222.99892016997794 136.93301660113312,212.25897972945435 135.69185149002539,201.12250290765456 136.40422928159,189.92741944775685 139.0527656066339,179.01418424472644 143.56113042818077,168.7154237425786 149.79624136555248,159.34579785144902 157.57218877477354,151.19238637896365 166.65577692611544,144.50589368321707 176.7735161820622,139.49294099460087 187.61985655848122,136.30968333964393 198.8664148142574,135.0569482036011 210.17191643754336,135.77704718531203 221.19255153335354,138.4523613111282 231.5924303662775,143.0057469141471 241.05382059686735,149.30275368002708 249.28685420447758,157.1555912913643 256.03840755272955,166.32872774854883 261.09988257622473,176.5459525341006 264.3136499218453,187.49869284641676 265.5779550828232,198.85533253616939 264.85013491096595,210.27125232284357 262.14804298437747,221.39928731143348 257.5496365998866,231.90028447513362 251.19073400549718,241.45343904518518 243.26100619204357,249.76609478792003 233.99832142901934,256.5827087886752 223.681611113861,261.69270614705033 212.6224708656477,264.9369831833345 201.15574974191864,266.2128583692475 189.62941179185626,265.47731700724387 178.39397691048657,262.7484472798832 167.79186141600863,258.10502011391935 158.14694250649848,251.68422169102254 149.75466462863875,243.6776036754528 142.87298997537914,234.32537060658754 137.7144702821241,223.9091747618226 134.43968355517632,212.74363457771216 133.15223834432817,201.1668320200067 133.89550089647844,189.5300759065542 136.65114842461176,178.1872411324048 141.33959637204694,167.48400730715252 147.82229062345203,157.7473240581821 155.90579884113797,149.2754240451975 165.34758021584426,142.3286887394335 175.86326159021579,137.1216467112985 187.13520171022338,133.81635029368712 198.82208570190718,132.51733505790386 210.569259978746,133.26831880020046 222.01949464567514,136.05074412910608 232.82384680170358,140.78421285801326 242.65229439013427,147.32880293792664 251.2038165382437,155.48920135772872 258.21561249651216,165.02053103827606 263.47117685952776,175.63569794225597 266.80698296780247,187.0140379981608 268.11756822852044,198.81100342381916 267.3588632960775,210.66859586404618 264.5496601663996,222.22623042375508 259.77117065602044,233.1317009105597 253.16468474759876,243.05191283845062 244.92739612568053,251.68305712168493 235.30651813929046,258.7599137324588 224.59186570570563,264.0640004303534 213.10712571390368,267.43031622929163 201.2000788542689,268.7524715149448 189.23206825065364,267.98604539235544 177.56703379816497,265.1500644619053 166.5604449805842,260.3265541700541 156.548468713233,253.65817243312418 147.8377022948726,245.34399360908833 140.69578503159553,235.63356731685866 135.34317599882104,224.81942935366723 131.94635050921917,213.22828942596814 130.61262519863095,201.21116113235695 131.38677251136653,189.13273236535346 134.24953124258903,177.36029802008505 139.1180623159131,166.2525908717264 145.84833988135165,156.14885026491513 154.23940890750242,147.35846171143137 164.03938350557314,140.15148379564988 174.95300699837117,134.75035242799544 186.65054686196737,131.32301724772998 198.777756589555,129.97772191220665 210.96660351994672,130.7595904150886 222.84643775799677,133.64912694708397 234.0552632371297,138.56267880187943 244.25076818340125,145.35485219582623 253.12077887200985,153.82281142409317 260.3928174402958,163.7123343280049 265.84247114283016,174.72544335040953 269.30031601375924,186.52938314990288 270.65718137421766,198.76667431146893 269.8675916811891,211.06593940524886 266.9512773484217,223.0531735360767 261.9927047121543,234.36311734598578 255.1386354896992,244.65038663171757 246.59378605931607,253.60001945545105 236.6147148495633,260.9371186762414 225.5021202975521,266.4352947136557 213.5917805621596,269.9236492752488 201.24440796661912,271.292084660642 188.83472470945097,270.49477377746706 176.74009068584337,267.5516816439274 165.3290285451581,262.548088226188 154.9499949199661,255.6321231752246 145.92073996110776,247.01038354272535 138.5185800878119,236.94176402712978 132.97188171551795,225.72968394551185 129.45301746326203,213.7129442742241 128.0730120529337,201.25549024470718 128.87804412625496,188.73538882415082 131.8479140605669,176.53335490776342 136.89652825977828,165.02117443630203 143.87438913924996,154.55037647164974 152.5730189738669,145.4414993776652 162.731186795302,137.97427885186625 174.04275240652655,132.37905814469238 186.1658920137114,128.8296842017728 198.73342747720477,127.4381087665094 211.36394706114936,128.250862029977 223.6733808703165,131.24750976506124 235.28667967255404,136.3411447457446 245.8492419766682,143.38090145372584 255.037741205776,152.15642149045766 262.5700223840794,162.4041376177338 268.2137654261332,173.81518875856491 271.79364905971636,186.04472830164693 273.1967945199149,198.7223451991167 272.376320066301,211.4632829464495 269.3528945304438,223.88011664839837 264.2142387682881,235.59453378141194 257.1125862317996,246.24886042498454 248.2601759929516,255.5169817892172 237.92291155983443,263.114323620025 226.41237488939672,268.8065889969588 214.07643541041756,272.4169823212056 201.2887370789714,273.8316978063392 " style="fill:none;stroke:black;stroke-width:1" /></svg>